<?xml version="1.0" standalone="no"?>
<!DOCTYPE svg PUBLIC "-//W3C//DTD SVG 20010904//EN"
 "http://www.w3.org/TR/2001/REC-SVG-20010904/DTD/svg10.dtd">
<svg version="1.0" xmlns="http://www.w3.org/2000/svg"
 width="183.000000pt" height="162.000000pt" viewBox="0 0 183.000000 162.000000"
 preserveAspectRatio="xMidYMid meet">
<metadata>
Created by potrace 1.14, written by Peter Selinger 2001-2017
</metadata>
<g transform="translate(0.000000,162.000000) scale(0.100000,-0.100000)"
fill="#000000" stroke="none">
<path d="M1495 1553 c-39 -10 -121 -71 -175 -130 -111 -120 -181 -286 -224
-529 -59 -330 -83 -421 -143 -536 -71 -136 -155 -198 -268 -198 -93 0 -146 34
-191 123 -73 142 -42 297 70 348 72 33 160 18 186 -31 6 -11 15 -20 21 -20 19
0 -36 84 -70 107 -69 47 -180 55 -250 19 l-31 -17 0 28 c0 55 28 199 50 253
61 155 151 240 253 240 124 0 183 -71 263 -317 20 -62 40 -113 44 -113 4 0 12
18 18 40 11 43 2 88 -40 220 -44 138 -91 206 -172 248 -45 23 -63 26 -146 27
-91 0 -98 -1 -167 -38 -136 -73 -237 -188 -323 -369 -58 -123 -110 -317 -110
-415 0 -55 16 -37 40 45 21 74 97 232 111 232 3 0 9 -55 12 -122 6 -145 30
-236 89 -350 94 -181 256 -254 446 -200 135 38 217 109 316 276 31 52 79 152
107 222 144 368 204 466 323 535 41 23 46 29 27 29 -43 0 -168 -70 -237 -133
-63 -58 -65 -59 -51 -26 60 144 218 315 390 421 53 34 95 63 93 65 -12 12
-312 -148 -406 -218 -36 -26 -66 -44 -68 -40 -5 15 39 104 84 173 28 41 68 85
100 109 30 22 54 42 54 44 0 3 -1 4 -2 4 -2 -1 -12 -4 -23 -6z"/>
<path d="M1366 442 c27 -17 54 -79 54 -124 0 -37 -5 -52 -25 -73 -53 -52 -126
-15 -184 94 -18 34 -34 61 -37 61 -2 0 -10 -15 -17 -32 -16 -39 -5 -94 36
-174 56 -111 152 -145 232 -83 33 27 64 92 65 137 0 83 -69 202 -118 202 -11
0 -13 -3 -6 -8z"/>
</g>
</svg>
